<?xml version="1.0" standalone="no"?>
<!DOCTYPE svg PUBLIC "-//W3C//DTD SVG 20010904//EN"
 "http://www.w3.org/TR/2001/REC-SVG-20010904/DTD/svg10.dtd">
<svg version="1.0" xmlns="http://www.w3.org/2000/svg"
 width="1000.000000pt" height="1000.000000pt" viewBox="0 0 1000.000000 1000.000000"
 preserveAspectRatio="xMidYMid meet">
<metadata>
Created by potrace 1.11, written by Peter Selinger 2001-2013
</metadata>
<g transform="translate(0.000000,1000.000000) scale(0.100000,-0.100000)"
fill="#000000" stroke="none">
<path d="M0 5000 l0 -5000 5000 0 5000 0 0 5000 0 5000 -5000 0 -5000 0 0
-5000z m2689 2388 c9 -24 240 -638 511 -1365 272 -728 497 -1323 501 -1323 3
0 298 612 654 1360 357 749 651 1357 655 1353 4 -4 287 -619 630 -1366 343
-746 624 -1356 626 -1354 1 1 234 601 517 1332 283 732 522 1347 530 1368 l16
37 430 0 c237 0 431 -2 431 -4 0 -6 -1831 -4830 -1839 -4843 -3 -7 -308 653
-676 1467 -369 814 -672 1480 -675 1480 -3 0 -309 -666 -680 -1479 -371 -814
-678 -1476 -681 -1473 -4 5 -1762 4661 -1827 4840 -3 9 86 12 427 12 l432 0
18 -42z"/>
</g>
</svg>
