<svg xmlns="http://www.w3.org/2000/svg" width="757" height="123" viewBox="0 0 757 123">
  <defs>
    <style>
      .cls-1 {
        fill: #508a8c;
        fill-rule: evenodd;
      }
    </style>
  </defs>
  <path id="Webtranet" class="cls-1" d="M160.4,0.733H138.7L112.163,69.349,80.641,0.733l-32.7,68.616L22.288,0.733H0.589l45.89,121.69,34.015-74.48,33.721,74.48Zm32.109,101.6a18.711,18.711,0,0,1-10.776-3.592,20.5,20.5,0,0,1-7.4-8.577h55.86a38.645,38.645,0,0,0,.88-8.65q0-17.154-10.923-29.176T192.508,40.319a39.262,39.262,0,0,0-28.883,12.1,39.794,39.794,0,0,0-12.022,29.1A39.494,39.494,0,0,0,163.552,110.4a39.315,39.315,0,0,0,28.956,12.022,34.812,34.812,0,0,0,27.27-12.315L201.745,99.845a17.437,17.437,0,0,1-9.237,2.492h0Zm0-41.931a16.313,16.313,0,0,1,10.336,3.372,17.854,17.854,0,0,1,6.085,9.237H174.181q4.251-12.608,18.327-12.609h0ZM243.089,0.733V118.025h20.38a42.492,42.492,0,0,0,48.6-7.771,39.678,39.678,0,0,0,12.242-29.176A38.845,38.845,0,0,0,312.145,52.2a40.47,40.47,0,0,0-29.323-11.876,37.925,37.925,0,0,0-19.353,4.838V0.733h-20.38ZM297.63,66.27a20.544,20.544,0,0,1,0,29.616,20.27,20.27,0,0,1-14.808,6.3,18.248,18.248,0,0,1-14.661-6.6,22.183,22.183,0,0,1-.074-29.323q5.5-6.3,14.735-6.3A20.279,20.279,0,0,1,297.63,66.27ZM361.261,0.733h-20.38V44.718h-9.09V62.751h9.09v55.274h20.38V62.751h15.688V44.718H361.261V0.733ZM390,118.025H410.23V70.082a8.946,8.946,0,0,1,2.786-6.671A9.312,9.312,0,0,1,419.76,60.7a9.943,9.943,0,0,1,6.011,2.053L438.82,47.21a29.514,29.514,0,0,0-19.06-6.891,26.8,26.8,0,0,0-14.955,4.4H390v73.307ZM520.045,44.718H499.812q-7.917-4.4-18.767-4.4a39.555,39.555,0,0,0-29.029,12.022,39.554,39.554,0,0,0-12.023,29.03,39.546,39.546,0,0,0,12.023,29.03,39.556,39.556,0,0,0,29.029,12.022q10.849,0,18.767-4.4h20.233V44.718ZM495.194,66.783a23.046,23.046,0,0,1,0,29.176q-5.207,6.377-14.149,6.377a19.94,19.94,0,0,1-14.734-6.157,21.061,21.061,0,0,1,0-29.616,19.942,19.942,0,0,1,14.734-6.158Q489.987,60.406,495.194,66.783Zm43.176,51.242H558.6V79.319q0-8.941,4.472-13.855t12.682-4.912a16.438,16.438,0,0,1,12.169,5.058,16.637,16.637,0,0,1,4.985,12.1v40.319h20.232V77.706a37.292,37.292,0,0,0-37.386-37.387q-7.626,0-17.154,4.4H538.37v73.307Zm125.794-15.688a18.711,18.711,0,0,1-10.776-3.592,20.5,20.5,0,0,1-7.4-8.577h55.86a38.648,38.648,0,0,0,.879-8.65q0-17.154-10.922-29.176T664.164,40.319a39.262,39.262,0,0,0-28.883,12.1,39.8,39.8,0,0,0-12.023,29.1A39.5,39.5,0,0,0,635.207,110.4a39.319,39.319,0,0,0,28.957,12.022,34.812,34.812,0,0,0,27.27-12.315L673.4,99.845a17.437,17.437,0,0,1-9.237,2.492h0Zm0-41.931A16.313,16.313,0,0,1,674.5,63.778a17.854,17.854,0,0,1,6.085,9.237H645.837q4.251-12.608,18.327-12.609h0ZM739.817,0.733H719.438V44.718h-9.09V62.751h9.09v55.274h20.379V62.751h15.688V44.718H739.817V0.733Z"/>
</svg>
