<svg xmlns="http://www.w3.org/2000/svg" width="721" height="117" viewBox="0 0 721 117">
  <defs>
    <style>
      .cls-1 {
        fill: #fff;
        fill-rule: evenodd;
      }
    </style>
  </defs>
  <path id="Webtranet" class="cls-1" d="M152.574,0.246h-20.72l-25.34,65.52-30.1-65.52-31.22,65.52-24.5-65.52H-0.026l43.82,116.2,32.48-71.12,32.2,71.12Zm30.661,97.02a17.867,17.867,0,0,1-10.29-3.43,19.581,19.581,0,0,1-7.07-8.19h53.34a36.876,36.876,0,0,0,.84-8.26q0-16.38-10.43-27.86t-26.39-11.48a37.491,37.491,0,0,0-27.58,11.55,38,38,0,0,0-11.48,27.79,37.716,37.716,0,0,0,11.41,27.58,37.542,37.542,0,0,0,27.65,11.48,33.243,33.243,0,0,0,26.04-11.76l-17.22-9.8a16.649,16.649,0,0,1-8.82,2.38h0Zm0-40.04a15.578,15.578,0,0,1,9.87,3.22,17.048,17.048,0,0,1,5.81,8.82h-33.18q4.059-12.039,17.5-12.04h0Zm48.3-56.98v112h19.46a40.573,40.573,0,0,0,46.41-7.42,37.891,37.891,0,0,0,11.69-27.86,37.092,37.092,0,0,0-11.62-27.58,38.644,38.644,0,0,0-28-11.34,36.216,36.216,0,0,0-18.48,4.62V0.246h-19.46Zm52.08,62.58a19.616,19.616,0,0,1,0,28.28,19.356,19.356,0,0,1-14.14,6.02,17.426,17.426,0,0,1-14-6.3,21.184,21.184,0,0,1-.07-28q5.25-6.018,14.07-6.02A19.364,19.364,0,0,1,283.614,62.826Zm60.76-62.58h-19.46v42h-8.68v17.22h8.68v52.78h19.46V59.466h14.98V42.246h-14.98v-42Zm27.44,112h19.32V66.466a8.543,8.543,0,0,1,2.66-6.37,8.893,8.893,0,0,1,6.44-2.59,9.495,9.495,0,0,1,5.74,1.96l12.46-14.84a28.18,28.18,0,0,0-18.2-6.58,25.585,25.585,0,0,0-14.28,4.2h-14.14v70ZM496,42.246h-19.32a36.337,36.337,0,0,0-17.92-4.2,37.772,37.772,0,0,0-27.72,11.48,37.77,37.77,0,0,0-11.48,27.72,37.764,37.764,0,0,0,11.48,27.72,37.771,37.771,0,0,0,27.72,11.48,36.337,36.337,0,0,0,17.92-4.2H496v-70Zm-23.73,21.07a22.007,22.007,0,0,1,0,27.86q-4.971,6.09-13.51,6.09a19.045,19.045,0,0,1-14.07-5.88,20.112,20.112,0,0,1,0-28.28,19.045,19.045,0,0,1,14.07-5.88Q467.293,57.226,472.265,63.316Zm41.228,48.93h19.32V75.286q0-8.538,4.27-13.23t12.11-4.69a15.7,15.7,0,0,1,11.62,4.83,15.882,15.882,0,0,1,4.76,11.55v38.5h19.32v-38.5a35.611,35.611,0,0,0-35.7-35.7q-7.281,0-16.38,4.2h-19.32v70Zm120.119-14.98a17.867,17.867,0,0,1-10.29-3.43,19.581,19.581,0,0,1-7.07-8.19h53.34a36.876,36.876,0,0,0,.84-8.26q0-16.38-10.43-27.86t-26.39-11.48a37.491,37.491,0,0,0-27.58,11.55,38,38,0,0,0-11.48,27.79,37.716,37.716,0,0,0,11.41,27.58,37.542,37.542,0,0,0,27.65,11.48,33.242,33.242,0,0,0,26.04-11.76l-17.22-9.8a16.649,16.649,0,0,1-8.82,2.38h0Zm0-40.04a15.578,15.578,0,0,1,9.87,3.22,17.048,17.048,0,0,1,5.81,8.82h-33.18q4.059-12.039,17.5-12.04h0Zm72.24-56.98h-19.46v42h-8.68v17.22h8.68v52.78h19.46V59.466h14.98V42.246h-14.98v-42Z"/>
</svg>
